# xmcd
#
# Track frame offsets:
#	150
#	19800
#	37590
#	56171
#	70518
#	94067
#	112768
#	126193
#	140947
#
# Disc length: 2214 seconds
#
# Revision: 1
# Processed by: cddbd v1.5.2PL0 Copyright (c) Steve Scherf et al.
# Submitted via: audiograbber 1.83.01
#
DISCID=7308a409
DTITLE=Bluessmyth - 30 pieces of silver
DYEAR=2002
DGENRE=Blues
TTITLE0=Love for free
TTITLE1=Blindboy
TTITLE2=Rivers we ride
TTITLE3=Lakebird
TTITLE4=Rainbow
TTITLE5=On the ground
TTITLE6=We the people
TTITLE7=Breathe
TTITLE8=Found
EXTD=
EXTT0=
EXTT1=
EXTT2=
EXTT3=
EXTT4=
EXTT5=
EXTT6=
EXTT7=
EXTT8=
PLAYORDER=
